<svg width="512" height="512" viewBox="0 0 512 512" fill="none" xmlns="http://www.w3.org/2000/svg">
<path d="M256 28.6721C377.6 28.6721 450.56 85.4188 450.56 174.592V271.872C450.56 369.152 353.28 450.219 256 482.645C158.72 450.219 61.4404 369.152 61.4404 271.872V174.592C61.4404 85.4188 134.4 28.6721 256 28.6721Z" stroke="url(#paint0_linear_77_6)" stroke-width="10"/>
<path d="M224.768 119.296L240.64 143.36C221.628 154.442 164.853 167.213 160.768 206.848C156.156 251.595 189.524 267.819 246.271 284.032C303.018 300.245 335.444 324.565 335.444 365.099C335.444 413.739 294.911 446.165 238.164 446.165C197.631 446.165 165.204 429.952 140.884 405.632L160.768 370.176C176.981 386.389 213.844 405.632 242.218 405.632C274.644 405.632 294.911 385.365 294.911 365.099C294.911 340.779 270.591 324.565 230.058 312.405C165.204 292.139 124.671 263.765 124.671 211.072C124.671 158.379 224.768 119.296 224.768 119.296Z" fill="url(#paint1_linear_77_6)"/>
<path d="M140.885 405.632L299.37 44.8853L401.109 369.152H350.239L324.805 296.192L207.36 289.28L140.885 405.632ZM223.232 261.12L305.729 263.765L273.935 166.485L223.232 261.12Z" fill="url(#paint2_linear_77_6)"/>
<defs>
<linearGradient id="paint0_linear_77_6" x1="61.4404" y1="28.6721" x2="61.4404" y2="482.645" gradientUnits="userSpaceOnUse">
<stop stop-color="#6737C8"/>
<stop offset="1" stop-color="#BC3EC1"/>
</linearGradient>
<linearGradient id="paint1_linear_77_6" x1="124.671" y1="130.005" x2="124.671" y2="446.165" gradientUnits="userSpaceOnUse">
<stop stop-color="#6737C8"/>
<stop offset="1" stop-color="#BC3EC1"/>
</linearGradient>
<linearGradient id="paint2_linear_77_6" x1="197.631" y1="44.8853" x2="197.631" y2="369.152" gradientUnits="userSpaceOnUse">
<stop stop-color="#6737C8"/>
<stop offset="1" stop-color="#BC3EC1"/>
</linearGradient>
</defs>
</svg>
